<svg
  viewBox="0 0 100 100"
  xmlns="http://www.w3.org/2000/svg"
>
  <defs>
    <style>
      .bg { fill: #0a0a19; } /* Cor de fundo do aplicativo */
      .accent { fill: #00ffff; } /* Cor de destaque */
    </style>
  </defs>

  <circle class="bg" cx="50" cy="50" r="50"/>

  <g class="accent">
      <!-- Forma da cabeça -->
      <path d="M50,10 C27.9,10 10,27.9 10,50 C10,72.1 27.9,90 50,90 C72.1,90 90,72.1 90,50 C90,27.9 72.1,10 50,10 Z M50,86 C30.1,86 14,69.9 14,50 C14,30.1 30.1,14 50,14 C69.9,14 86,30.1 86,50 C86,69.9 69.9,86 50,86 Z" opacity="0.5" />

      <!-- Área do visor -->
      <path d="M25,40 Q50,35 75,40 L75,60 Q50,65 25,60 Z" />

      <!-- Olho brilhante -->
      <circle cx="50" cy="50" r="10" />
  </g>
</svg>